# xmcd
#
# Track frame offsets:
# 182
# 18520
# 35685
# 53580
# 71687
# 86687
# 109975
# 128647
# 149295
# 162670
# 178457
# 198715
# 219045
# 236727
#
# Disc length: 3378 seconds
#
#
# Revision: 7
# Processed by: cddbd v1.5PL3 Copyright (c) Steve Scherf et al.
# Submitted via: FreeRIP 2.53 
#
DISCID=d20d300e
DTITLE=Tim McGraw - Set This Circus Down
DYEAR=2001
DGENRE=Country
TTITLE0=The Cowboy In Me
TTITLE1=Telluride
TTITLE2=You Get Used To Somebody
TTITLE3=Unbroken
TTITLE4=Things Change
TTITLE5=Angel Boy
TTITLE6=Forget About Us
TTITLE7=Take Me Away From Here
TTITLE8=Smilin'
TTITLE9=Set This Circus Down
TTITLE10=Angry All The Time
TTITLE11=Let Me Love You
TTITLE12=Grown Men Don't Cry
TTITLE13=Why We Said Goodbye
EXTD=
EXTT0=
EXTT1=
EXTT2=
EXTT3=
EXTT4=
EXTT5=
EXTT6=
EXTT7=
EXTT8=
EXTT9=
EXTT10=
EXTT11=
EXTT12=
EXTT13=
PLAYORDER=
